<svg xmlns="http://www.w3.org/2000/svg" width="37" height="37" viewBox="0 0 37 37" fill="none">
<circle cx="18.2446" cy="18.5" r="18.2446" fill="#492F24"/>
<path d="M26.5983 10.3559C25.0404 9.6269 23.3746 9.09709 21.633 8.79541C21.4191 9.18215 21.1693 9.70233 20.997 10.1161C19.1457 9.83768 17.3114 9.83768 15.4941 10.1161C15.3218 9.70233 15.0663 9.18215 14.8505 8.79541C13.1071 9.09709 11.4393 9.62885 9.88141 10.3598C6.73906 15.1089 5.88722 19.74 6.31314 24.3054C8.39731 25.862 10.4171 26.8075 12.4028 27.4263C12.8931 26.7515 13.3304 26.0341 13.7071 25.278C12.9897 25.0054 12.3025 24.6689 11.6532 24.2783C11.8255 24.1507 11.994 24.0172 12.1568 23.8799C16.1169 25.7324 20.4196 25.7324 24.3324 23.8799C24.4971 24.0172 24.6656 24.1507 24.8359 24.2783C24.1847 24.6708 23.4957 25.0073 22.7783 25.2799C23.155 26.0341 23.5904 26.7534 24.0825 27.4282C26.0702 26.8095 28.0919 25.8639 30.176 24.3054C30.6758 19.0129 29.3223 14.4243 26.5983 10.3559ZM14.2466 21.4977C13.0578 21.4977 12.0829 20.3878 12.0829 19.0361C12.0829 17.6845 13.037 16.5726 14.2466 16.5726C15.4562 16.5726 16.4311 17.6825 16.4103 19.0361C16.4122 20.3878 15.4562 21.4977 14.2466 21.4977ZM22.2426 21.4977C21.0538 21.4977 20.0789 20.3878 20.0789 19.0361C20.0789 17.6845 21.0329 16.5726 22.2426 16.5726C23.4522 16.5726 24.4271 17.6825 24.4062 19.0361C24.4062 20.3878 23.4522 21.4977 22.2426 21.4977Z" fill="white"/>
</svg>