<svg width="47" height="47" viewBox="0 0 47 47" fill="none" xmlns="http://www.w3.org/2000/svg">
<circle cx="23.5" cy="23.5" r="23.5" fill="#492F24"/>
<path d="M34.2599 13.01C32.2533 12.071 30.1076 11.3886 27.8644 11C27.5889 11.4981 27.2671 12.1682 27.0452 12.7011C24.6606 12.3425 22.2979 12.3425 19.9572 12.7011C19.7353 12.1682 19.4061 11.4981 19.1282 11C16.8825 11.3886 14.7344 12.0735 12.7277 13.015C8.68025 19.132 7.58304 25.0972 8.13164 30.9776C10.8162 32.9826 13.4178 34.2005 15.9755 34.9975C16.607 34.1283 17.1702 33.2042 17.6554 32.2304C16.7313 31.8792 15.8463 31.4459 15.01 30.9427C15.2318 30.7783 15.4489 30.6065 15.6585 30.4296C20.7593 32.8157 26.3015 32.8157 31.3414 30.4296C31.5535 30.6065 31.7705 30.7783 31.9899 30.9427C31.1512 31.4483 30.2637 31.8817 29.3396 32.2329C29.8248 33.2042 30.3856 34.1308 31.0195 35C33.5797 34.203 36.1837 32.9851 38.8682 30.9776C39.512 24.1607 37.7686 18.2503 34.2599 13.01ZM18.3504 27.3612C16.8191 27.3612 15.5634 25.9315 15.5634 24.1906C15.5634 22.4496 16.7923 21.0175 18.3504 21.0175C19.9084 21.0175 21.1641 22.4471 21.1373 24.1906C21.1397 25.9315 19.9084 27.3612 18.3504 27.3612ZM28.6495 27.3612C27.1183 27.3612 25.8626 25.9315 25.8626 24.1906C25.8626 22.4496 27.0915 21.0175 28.6495 21.0175C30.2076 21.0175 31.4633 22.4471 31.4365 24.1906C31.4365 25.9315 30.2076 27.3612 28.6495 27.3612Z" fill="white"/>
</svg>
