<svg xmlns="http://www.w3.org/2000/svg" width="37" height="37" viewBox="0 0 37 37" fill="none">
<circle cx="18.245" cy="18.245" r="18.245" fill="#492F24"/>
<path d="M23.1096 6.21094H13.3818C11.4804 6.21239 9.65732 6.96835 8.31284 8.31284C6.96835 9.65732 6.21239 11.4804 6.21094 13.3818V23.1096C6.2121 25.0112 6.96793 26.8346 8.31245 28.1793C9.65697 29.524 11.4802 30.2801 13.3818 30.2816H23.1096C25.0111 30.2799 26.8342 29.5236 28.1787 28.179C29.5231 26.8343 30.2791 25.0111 30.2805 23.1096V13.3818C30.2796 11.4802 29.5239 9.65681 28.1792 8.3122C26.8346 6.96759 25.0112 6.21181 23.1096 6.21094ZM27.8603 23.1096C27.86 24.3695 27.3594 25.5777 26.4685 26.4685C25.5777 27.3594 24.3695 27.86 23.1096 27.8603H13.3818C12.758 27.8603 12.1403 27.7374 11.564 27.4987C10.9877 27.2599 10.464 26.91 10.023 26.4688C9.58191 26.0276 9.23208 25.5039 8.99345 24.9276C8.75483 24.3512 8.63208 23.7334 8.63223 23.1096V13.3818C8.63208 12.758 8.75484 12.1404 8.99347 11.564C9.23211 10.9877 9.58196 10.4641 10.023 10.023C10.4641 9.58196 10.9877 9.23211 11.564 8.99347C12.1404 8.75484 12.758 8.63208 13.3818 8.63223H23.1096C24.3692 8.63252 25.5771 9.13301 26.4678 10.0237C27.3584 10.9143 27.8589 12.1222 27.8592 13.3818L27.8603 23.1096Z" fill="white"/>
<path d="M18.2463 12.023C14.813 12.023 12.0229 14.8141 12.0229 18.2463C12.0229 21.6786 14.8141 24.4697 18.2463 24.4697C21.6786 24.4697 24.4697 21.6786 24.4697 18.2463C24.4697 14.8141 21.6797 12.023 18.2463 12.023ZM18.2463 22.0484C17.2379 22.0485 16.2708 21.6481 15.5577 20.9352C14.8445 20.2223 14.4438 19.2552 14.4437 18.2469C14.4435 17.2385 14.844 16.2714 15.5569 15.5582C16.2698 14.8451 17.2368 14.4444 18.2452 14.4443C19.2536 14.4441 20.2207 14.8445 20.9338 15.5575C21.647 16.2704 22.0477 17.2374 22.0478 18.2458C22.048 19.2542 21.6475 20.2213 20.9346 20.9344C20.2217 21.6475 19.2547 22.0483 18.2463 22.0484ZM24.4828 10.5776C24.7777 10.5779 25.0658 10.6655 25.3109 10.8294C25.556 10.9934 25.7469 11.2263 25.8597 11.4987C25.9724 11.7712 26.0019 12.0709 25.9443 12.3601C25.8867 12.6493 25.7447 12.9149 25.5362 13.1234C25.3277 13.3319 25.0621 13.4739 24.7729 13.5315C24.4837 13.5891 24.184 13.5596 23.9115 13.4469C23.6391 13.3342 23.4061 13.1432 23.2422 12.8981C23.0783 12.653 22.9906 12.3649 22.9904 12.07C22.9904 11.2472 23.5484 10.5776 24.4828 10.5776Z" fill="white"/>
</svg>