<svg width="47" height="47" viewBox="0 0 47 47" fill="none" xmlns="http://www.w3.org/2000/svg">
<circle cx="23.5" cy="23.5" r="23.5" fill="#492F24"/>
<path d="M29.7659 8H17.2362C14.7872 8.00187 12.439 8.97557 10.7073 10.7073C8.97557 12.439 8.00187 14.7872 8 17.2362V29.7659C8.00149 32.2152 8.97503 34.5638 10.7068 36.2958C12.4386 38.0278 14.787 39.0017 17.2362 39.0036H29.7659C32.2151 39.0013 34.5633 38.0273 36.295 36.2954C38.0267 34.5634 39.0003 32.2151 39.0022 29.7659V17.2362C39.0011 14.787 38.0276 12.4384 36.2957 10.7065C34.5638 8.97458 32.2152 8.00112 29.7659 8ZM35.8849 29.7659C35.8845 31.3887 35.2397 32.9448 34.0923 34.0923C32.9448 35.2397 31.3887 35.8845 29.7659 35.8849H17.2362C16.4328 35.8849 15.6371 35.7266 14.8948 35.4191C14.1525 35.1116 13.4781 34.6608 12.91 34.0926C12.3419 33.5244 11.8913 32.8498 11.5839 32.1075C11.2766 31.3651 11.1185 30.5694 11.1187 29.7659V17.2362C11.1185 16.4328 11.2766 15.6372 11.584 14.8949C11.8913 14.1526 12.342 13.4782 12.9101 12.9101C13.4782 12.342 14.1526 11.8913 14.8949 11.584C15.6372 11.2766 16.4328 11.1185 17.2362 11.1187H29.7659C31.3883 11.1191 32.9441 11.7637 34.0913 12.9109C35.2385 14.0581 35.8831 15.6139 35.8835 17.2362L35.8849 29.7659Z" fill="white"/>
<path d="M23.5017 15.4861C19.0794 15.4861 15.4858 19.0811 15.4858 23.502C15.4858 27.9228 19.0808 31.5178 23.5017 31.5178C27.9225 31.5178 31.5175 27.9228 31.5175 23.502C31.5175 19.0811 27.9239 15.4861 23.5017 15.4861ZM23.5017 28.3991C22.2029 28.3993 20.9572 27.8835 20.0387 26.9653C19.1201 26.047 18.604 24.8015 18.6038 23.5027C18.6036 22.2039 19.1194 20.9582 20.0377 20.0397C20.9559 19.1211 22.2015 18.605 23.5003 18.6048C24.7991 18.6046 26.0448 19.1204 26.9633 20.0387C27.8818 20.9569 28.3979 22.2025 28.3981 23.5013C28.3983 24.8001 27.8825 26.0458 26.9643 26.9643C26.046 27.8828 24.8005 28.3989 23.5017 28.3991ZM31.5344 13.6245C31.9142 13.6248 32.2854 13.7376 32.601 13.9488C32.9167 14.16 33.1627 14.46 33.3079 14.8109C33.4531 15.1618 33.491 15.5479 33.4168 15.9204C33.3427 16.2929 33.1598 16.635 32.8912 16.9035C32.6227 17.1721 32.2806 17.355 31.9081 17.4292C31.5356 17.5033 31.1495 17.4654 30.7986 17.3202C30.4477 17.175 30.1477 16.929 29.9365 16.6133C29.7253 16.2977 29.6125 15.9265 29.6122 15.5467C29.6122 14.487 30.3309 13.6245 31.5344 13.6245Z" fill="white"/>
</svg>
