<svg xmlns="http://www.w3.org/2000/svg" width="38" height="37" viewBox="0 0 38 37" fill="none">
<circle cx="19.225" cy="18.245" r="18.245" fill="#492F24"/>
<path d="M27.1927 11.1922C27.0355 11.1109 26.8825 11.0218 26.7342 10.9253C26.303 10.6402 25.9076 10.3043 25.5566 9.92477C24.6784 8.91989 24.3504 7.90046 24.2296 7.18671H24.2345C24.1336 6.59426 24.1753 6.21094 24.1816 6.21094H20.1817V21.6786C20.1817 21.8863 20.1817 22.0915 20.1729 22.2944C20.1729 22.3196 20.1705 22.3429 20.1691 22.3701C20.1691 22.3812 20.1691 22.3929 20.1666 22.4045C20.1666 22.4074 20.1666 22.4103 20.1666 22.4132C20.1245 22.9682 19.9466 23.5043 19.6486 23.9744C19.3506 24.4445 18.9417 24.8342 18.4578 25.1091C17.9535 25.396 17.383 25.5465 16.8028 25.5458C14.9392 25.5458 13.4288 24.0261 13.4288 22.1493C13.4288 20.2725 14.9392 18.7528 16.8028 18.7528C17.1556 18.7525 17.5062 18.808 17.8416 18.9173L17.8464 14.8444C16.8282 14.7128 15.7938 14.7938 14.8084 15.082C13.823 15.3703 12.908 15.8597 12.1212 16.5193C11.4318 17.1184 10.8522 17.8332 10.4085 18.6315C10.2396 18.9226 9.60256 20.0925 9.52541 21.9911C9.47689 23.0688 9.80052 24.1852 9.95481 24.6467V24.6564C10.0518 24.9281 10.4279 25.8554 11.0407 26.637C11.5348 27.2641 12.1186 27.8149 12.7733 28.2717V28.262L12.783 28.2717C14.7194 29.5876 16.8664 29.5013 16.8664 29.5013C17.238 29.4862 18.483 29.5013 19.8969 28.8312C21.465 28.0883 22.3578 26.9815 22.3578 26.9815C22.9281 26.3202 23.3816 25.5666 23.6988 24.753C24.0608 23.8014 24.1816 22.6602 24.1816 22.2041V13.9982C24.2301 14.0273 24.8764 14.4547 24.8764 14.4547C24.8764 14.4547 25.8075 15.0516 27.2601 15.4402C28.3023 15.7168 29.7065 15.775 29.7065 15.775V11.804C29.2145 11.8574 28.2155 11.7021 27.1927 11.1922Z" fill="white"/>
</svg>