<svg width="47" height="47" viewBox="0 0 47 47" fill="none" xmlns="http://www.w3.org/2000/svg">
<circle cx="23.5" cy="23.5" r="23.5" fill="#492F24"/>
<path d="M33.7622 14.4159C33.5597 14.3113 33.3626 14.1966 33.1716 14.0722C32.6162 13.705 32.107 13.2723 31.6549 12.7835C30.5238 11.4892 30.1013 10.1761 29.9457 9.25681H29.9519C29.822 8.49373 29.8757 8 29.8838 8H24.7318V27.9228C24.7318 28.1902 24.7318 28.4546 24.7206 28.7158C24.7206 28.7483 24.7175 28.7783 24.7156 28.8133C24.7156 28.8277 24.7156 28.8427 24.7125 28.8577C24.7125 28.8615 24.7125 28.8652 24.7125 28.869C24.6582 29.5838 24.429 30.2743 24.0452 30.8798C23.6614 31.4853 23.1347 31.9872 22.5114 32.3413C21.8618 32.7109 21.1271 32.9047 20.3798 32.9038C17.9794 32.9038 16.0339 30.9464 16.0339 28.529C16.0339 26.1116 17.9794 24.1542 20.3798 24.1542C20.8342 24.1538 21.2857 24.2253 21.7178 24.3661L21.724 19.1201C20.4125 18.9506 19.0801 19.0549 17.8109 19.4262C16.5417 19.7975 15.3632 20.4279 14.3497 21.2775C13.4617 22.0491 12.7152 22.9697 12.1437 23.998C11.9262 24.3729 11.1057 25.8797 11.0063 28.3252C10.9438 29.7133 11.3607 31.1513 11.5594 31.7457V31.7582C11.6844 32.1082 12.1687 33.3025 12.958 34.3093C13.5945 35.1169 14.3464 35.8264 15.1897 36.4148V36.4023L15.2022 36.4148C17.6963 38.1097 20.4616 37.9985 20.4616 37.9985C20.9403 37.9791 22.5439 37.9985 24.365 37.1354C26.3848 36.1786 27.5347 34.753 27.5347 34.753C28.2693 33.9013 28.8534 32.9305 29.262 31.8826C29.7282 30.657 29.8838 29.1871 29.8838 28.5996V18.0301C29.9463 18.0676 30.7787 18.6182 30.7787 18.6182C30.7787 18.6182 31.978 19.3869 33.8491 19.8875C35.1914 20.2438 37 20.3188 37 20.3188V15.204C36.3663 15.2728 35.0796 15.0728 33.7622 14.4159Z" fill="white"/>
</svg>
