<svg width="48" height="47" viewBox="0 0 48 47" fill="none" xmlns="http://www.w3.org/2000/svg">
<circle cx="23.8418" cy="23.5" r="23.5" fill="#492F24"/>
<path d="M37.5065 15.391C37.3668 15.4318 37.2271 15.4698 37.0873 15.5052C36.2332 15.7209 36.1547 15.4363 36.7731 14.8084C37.05 14.5271 37.2947 14.2211 37.5072 13.8906C37.9835 13.1495 37.5704 12.8263 36.76 13.1725C36.471 13.2959 36.1771 13.4079 35.8792 13.5078C35.0442 13.7882 33.8594 13.3652 33.1154 12.8933C32.1761 12.2977 31.1086 12 29.9126 12C28.2373 12 26.8094 12.5908 25.628 13.7716C24.4469 14.9529 23.8561 16.3813 23.8561 18.0562C23.8561 18.2852 23.8691 18.5178 23.895 18.7536C23.9374 19.1374 23.2911 19.4156 22.4188 19.2924C20.5321 19.026 18.7394 18.4543 17.0406 17.5779C15.3557 16.7088 13.8687 15.6152 12.5798 14.2969C11.9637 13.6669 11.1304 13.7212 10.9003 14.5717C10.7625 15.0815 10.694 15.6117 10.694 16.1624C10.694 17.2002 10.9377 18.1627 11.4252 19.05C11.6676 19.4915 11.9516 19.8913 12.2777 20.2489C12.8261 20.851 12.7422 21.2003 11.9787 20.9862C11.2156 20.7722 10.6564 20.4544 10.6564 20.4752C10.6564 20.4959 10.6564 20.5128 10.6564 20.5128C10.6564 21.9749 11.1155 23.2597 12.0343 24.3658C12.6002 25.0472 13.2578 25.5736 14.0065 25.9444C14.7962 26.3355 15.164 26.5537 14.7224 26.6108C14.4561 26.6453 14.1881 26.6625 13.9185 26.6625C13.736 26.6625 13.5446 26.6542 13.3449 26.6373C13.0291 26.6105 12.9723 27.2686 13.4512 28.0082C13.8318 28.5958 14.3189 29.113 14.9124 29.5597C15.516 30.0143 16.1665 30.3406 16.8629 30.5394C17.7103 30.7809 17.8803 31.2209 17.1248 31.6739C15.2553 32.7957 13.1863 33.3565 10.9183 33.3565C10.6628 33.3565 10.419 33.3508 10.1862 33.3396C9.78194 33.3202 10.0531 33.6762 10.8335 34.0849C13.2718 35.362 15.9125 36 18.7557 36C20.9054 36 22.9242 35.6596 24.812 34.9785C26.699 34.2973 28.3118 33.3845 29.6491 32.2408C30.9865 31.0971 32.1399 29.7817 33.1087 28.294C34.0774 26.8064 34.799 25.2533 35.2744 23.6349C35.7491 22.0161 35.9868 20.3941 35.9868 18.769C35.9868 18.6225 35.9855 18.4911 35.9833 18.3753C35.9788 18.1577 36.5544 17.5687 37.1969 16.9661C37.4869 16.694 37.7635 16.4084 38.0277 16.1089C38.6104 15.4475 38.3523 15.1444 37.5065 15.391Z" fill="white"/>
</svg>
