<svg xmlns="http://www.w3.org/2000/svg" width="37" height="37" viewBox="0 0 37 37" fill="none">
<circle cx="18.7352" cy="18.245" r="18.245" fill="#492F24"/>
<path d="M29.3444 11.9491C29.2359 11.9808 29.1274 12.0103 29.0189 12.0378C28.3558 12.2052 28.2949 11.9843 28.775 11.4968C28.9899 11.2784 29.1799 11.0408 29.3449 10.7842C29.7147 10.2088 29.3939 9.9579 28.7648 10.2267C28.5404 10.3226 28.3122 10.4095 28.0809 10.487C27.4327 10.7047 26.5128 10.3763 25.9351 10.0099C25.2059 9.54751 24.3771 9.31641 23.4486 9.31641C22.1479 9.31641 21.0393 9.77512 20.122 10.6918C19.2051 11.609 18.7464 12.718 18.7464 14.0183C18.7464 14.1962 18.7565 14.3767 18.7766 14.5598C18.8096 14.8577 18.3077 15.0737 17.6305 14.9781C16.1657 14.7713 14.7739 14.3274 13.4549 13.647C12.1469 12.9723 10.9924 12.1232 9.99169 11.0997C9.51334 10.6106 8.86638 10.6527 8.68778 11.313C8.58077 11.7088 8.52754 12.1205 8.52754 12.548C8.52754 13.3538 8.71675 14.1011 9.09526 14.7899C9.28349 15.1327 9.50395 15.443 9.75711 15.7207C10.1829 16.1881 10.1178 16.4594 9.52504 16.2932C8.93256 16.127 8.49836 15.8803 8.49836 15.8964C8.49836 15.9125 8.49836 15.9256 8.49836 15.9256C8.49836 17.0608 8.85481 18.0582 9.56814 18.917C10.0076 19.446 10.518 19.8547 11.0994 20.1426C11.7124 20.4462 11.998 20.6156 11.6552 20.66C11.4484 20.6867 11.2403 20.7001 11.031 20.7001C10.8894 20.7001 10.7408 20.6937 10.5857 20.6805C10.3405 20.6597 10.2964 21.1707 10.6682 21.7449C10.9637 22.2011 11.3419 22.6026 11.8026 22.9494C12.2713 23.3024 12.7763 23.5558 13.317 23.7101C13.9749 23.8976 14.1069 24.2392 13.5203 24.5909C12.0689 25.4618 10.4626 25.8972 8.70174 25.8972C8.50334 25.8972 8.31409 25.8928 8.1333 25.8841C7.81947 25.869 8.03001 26.1454 8.63585 26.4627C10.529 27.4543 12.5791 27.9496 14.7866 27.9496C16.4555 27.9496 18.0229 27.6854 19.4885 27.1565C20.9536 26.6277 22.2057 25.919 23.244 25.031C24.2824 24.1431 25.1778 23.1218 25.93 21.9668C26.682 20.8118 27.2423 19.606 27.6114 18.3495C27.9799 17.0927 28.1645 15.8334 28.1645 14.5717C28.1645 14.458 28.1635 14.3559 28.1618 14.2661C28.1583 14.0971 28.6051 13.6399 29.104 13.172C29.3291 12.9607 29.5439 12.739 29.749 12.5065C30.2014 11.9929 30.001 11.7576 29.3444 11.9491Z" fill="white"/>
</svg>